<?xml version="1.0" encoding="utf-8"?>
<!-- Generator: Adobe Illustrator 16.0.1, SVG Export Plug-In . SVG Version: 6.00 Build 0)  -->
<!DOCTYPE svg PUBLIC "-//W3C//DTD SVG 1.1//EN" "http://www.w3.org/Graphics/SVG/1.1/DTD/svg11.dtd">
<svg version="1.1" id="Layer_1" xmlns="http://www.w3.org/2000/svg" xmlns:xlink="http://www.w3.org/1999/xlink" x="0px" y="0px"
	 width="488.824px" height="492.469px" viewBox="0 0 488.824 492.469" enable-background="new 0 0 488.824 492.469"
	 xml:space="preserve">
<path fill="#DDDDDD" d="M488.824,428.451L358.445,298.074c19.064-30.047,30.121-65.649,30.121-103.792
	C388.568,87.155,301.414,0,194.283,0C87.156,0,0,87.155,0,194.282C0,301.41,87.155,388.564,194.283,388.564
	c36.25,0,70.205-9.988,99.277-27.344l131.246,131.248L488.824,428.451L488.824,428.451z M72.427,194.282
	c0-67.192,54.664-121.857,121.855-121.857c67.193,0,121.857,54.665,121.857,121.857c0,67.193-54.664,121.857-121.857,121.857
	C127.091,316.139,72.427,261.475,72.427,194.282L72.427,194.282z"/>
</svg>
